<svg xmlns="http://www.w3.org/2000/svg" width="168.746" height="90.345" viewBox="0 0 168.746 90.345">
  <g id="click-before_3" transform="translate(0.628 2.586)">
    <g id="图层_10" data-name="图层 10" transform="translate(-0.628 -2.586)">
      <g id="组_5" data-name="组 5">
        <g id="组_4" data-name="组 4">
          <path id="路径_2" data-name="路径 2" d="M540.043,307.073v28.534s-.944,5.836,2.96,6.411,7.823,1.187,8.5.077-2.419-.192-1.959-9.379.115-15.733.115-15.733,3.381-7.7,3.126-8.444-3.994-3.107-12.747-1.466Z" transform="translate(-456.324 -254.277)" fill="#fff"/>
          <path id="路径_3" data-name="路径 3" d="M66.3,165.742c-1.509-.871-8.73-6.094-10.346,2s-.511,35.785-.511,35.785-.408,17.19-1.8,21.016-2.091,11.308-6.5,15.482-6.968,7.828-15.1,6.611-13.356-5.915-14.633-7.654-3.251-2.435-3.135-8,1.277-12.7-3.368-16.178S-.705,213.387.513,224.01s4.239,12.362,5.98,14.8,9.988,9.743,10.451,9.569,8.747,5.284,16.858,5.251,13.337-1.771,16.588-4.209,8.826-6.785,11.73-17.223S67,208.709,67,205.406s1.161-21.571.93-26.617c-.056-1.226-.093-2.577-.136-3.93-.136-4.213-.347-8.459-1.489-9.119Z" transform="translate(-0.372 -163.282)" fill="#fff"/>
        </g>
        <path id="路径_4" data-name="路径 4" d="M782.973,328.16c.025.05-2.092-5.333-8.294-.969s-14.929,6.317-14.929,6.317-10.681,1.263-16.881-.69-5.832-8.536-5.832-8.536c.485-1.531,6.176-.077,7.56.174s16.187,3.194,30.082-4.73.459-13.665-.8-14.47-11.484-4.364-19.522-5.627-13.551,1.148-17.34,3.9-9.531,10.106-10.081,19.555,9.391,13.289,17.348,14.1,11.8,1.142,26.266-2.074,12.4-7,12.427-6.955Zm-33.787-23.477c5.627-1.263,14.584-1.492,18.948,3.9s-1.607,9.531-5.512,11.139-20.556,4.249-23.083-2.411S749.186,304.683,749.186,304.683Z" transform="translate(-614.316 -248.176)" fill="#fff"/>
      </g>
    </g>
    <g id="图层_5" data-name="图层 5" transform="translate(75.011 0.13)">
      <g id="组_6" data-name="组 6">
        <path id="路径_5" data-name="路径 5" d="M495.532,33.448l3.6.119-1.506-2.633a14.413,14.413,0,0,0,9.291-3.138,14.623,14.623,0,0,0,5.455-8.72s1.327-5.412-1.1-10.086S504.927,1.029,500.358.3a17.407,17.407,0,0,0-14.611,4.973C481.681,9.448,482,17.211,482,17.211s1.131,9.226,7.642,12.024,6.827,1.948,6.827,1.948l-.936,2.266Z" transform="translate(-481.993 -0.13)" fill="none" stroke="#fff" stroke-miterlimit="10" stroke-width="0.25"/>
        <path id="路径_6" data-name="路径 6" d="M492.807,35.564l23.982-.6s1.61,2.332,1.8,2.6-27.373.834-27.373.834a18.4,18.4,0,0,1,1.587-2.828Z" transform="translate(-489.79 -29.562)" fill="#09c"/>
        <path id="路径_7" data-name="路径 7" d="M482.765,74.736l29.775-.466s.793,3.375.457,3.251-30.677.51-30.677.51l.445-3.293Z" transform="translate(-482.269 -62.78)" fill="#09c"/>
        <path id="路径_8" data-name="路径 8" d="M483.172,113.8l30.367-.561a21.875,21.875,0,0,1-.635,2.98c-.209.307-28.884.789-28.884.789s-1.237-3.144-.849-3.208Z" transform="translate(-482.924 -95.711)" fill="#09c"/>
        <path id="路径_9" data-name="路径 9" d="M497.32,153.056l26.127-.556s-2.3,2.9-2.478,3.075-21.058.731-21.058.731-3.124-3.306-2.593-3.25Z" transform="translate(-494.892 -128.887)" fill="#09c"/>
        <path id="路径_10" data-name="路径 10" d="M550.978,215.46s-3.013,3.536-2.238,10.2-2.128,16.714-3,16.647" transform="translate(-535.861 -182.09)" fill="none" stroke="#fff" stroke-miterlimit="10" stroke-width="0.26"/>
      </g>
    </g>
  </g>
</svg>
