<svg xmlns="http://www.w3.org/2000/svg" width="46.165" height="42.42" viewBox="0 0 46.165 42.42">
  <path id="Icon_metro-sun" data-name="Icon metro-sun" d="M28.545,14.609c-6.853,0-12.429,5.124-12.429,11.421s5.576,11.421,12.429,11.421S40.974,32.327,40.974,26.03,35.4,14.609,28.545,14.609Zm0,19.578c-4.9,0-8.878-3.652-8.878-8.158s3.974-8.158,8.878-8.158,8.878,3.652,8.878,8.158S33.449,34.188,28.545,34.188Zm0-22.841a1.709,1.709,0,0,0,1.776-1.632V6.452a1.782,1.782,0,0,0-3.551,0V9.715A1.709,1.709,0,0,0,28.545,11.346Zm0,29.367a1.709,1.709,0,0,0-1.776,1.632v3.263a1.782,1.782,0,0,0,3.551,0V42.345A1.709,1.709,0,0,0,28.545,40.714ZM42.355,15.646l2.511-2.307a1.539,1.539,0,0,0,0-2.307,1.888,1.888,0,0,0-2.511,0l-2.511,2.307a1.539,1.539,0,0,0,0,2.307A1.888,1.888,0,0,0,42.355,15.646ZM14.736,36.414l-2.511,2.307a1.539,1.539,0,0,0,0,2.307,1.888,1.888,0,0,0,2.511,0l2.511-2.307a1.539,1.539,0,0,0,0-2.307A1.885,1.885,0,0,0,14.736,36.414ZM12.565,26.03A1.709,1.709,0,0,0,10.79,24.4H7.238a1.637,1.637,0,1,0,0,3.263H10.79A1.709,1.709,0,0,0,12.565,26.03ZM49.852,24.4H46.3a1.637,1.637,0,1,0,0,3.263h3.551a1.637,1.637,0,1,0,0-3.263ZM14.734,15.646a1.888,1.888,0,0,0,2.511,0,1.539,1.539,0,0,0,0-2.307l-2.511-2.307a1.888,1.888,0,0,0-2.511,0,1.539,1.539,0,0,0,0,2.307ZM42.357,36.412a1.888,1.888,0,0,0-2.511,0,1.537,1.537,0,0,0,0,2.307l2.511,2.307a1.887,1.887,0,0,0,2.511,0,1.539,1.539,0,0,0,0-2.307Z" transform="translate(-5.463 -4.82)" fill="#ffae42"/>
</svg>
