<?xml version="1.0" encoding="UTF-8"?>
<svg xmlns="http://www.w3.org/2000/svg" viewBox="0 0 527 242">
  <defs>
    <style>
      .cls-1, .cls-2 {
        stroke: #fff;
        stroke-miterlimit: 10;
      }

      .cls-2, .cls-3 {
        fill: #fff;
      }

      .cls-3 {
        stroke-width: 0px;
      }
    </style>
  </defs>
  <g id="bg">
    <g id="bg-2" data-name="bg">
      <circle class="cls-3" cx="76.97" cy="112.57" r="70.31"/>
      <path class="cls-3" d="m76.97,42.76c38.49,0,69.81,31.32,69.81,69.81s-31.32,69.81-69.81,69.81S7.16,151.06,7.16,112.57,38.47,42.76,76.97,42.76m0-1c-39.11,0-70.81,31.7-70.81,70.81s31.7,70.81,70.81,70.81,70.81-31.7,70.81-70.81-31.7-70.81-70.81-70.81h0Z"/>
    </g>
  </g>
  <g id="hanzi">
    <g id="hanzi-2" data-name="hanzi">
      <path class="cls-1" d="m60.81,101.02c-.91,1-1.91,1.91-2.82,2.82,0,4.09-.91,7.91-2.27,11.37-1.73,4.09-4.09,7.91-7,11.55,1.36,4.18,3.46,8.28,5.55,12.37.27.91-1.09,1.27-1.45.82-2.55-3.46-4.46-7.28-6.37-11.19-1.55,1.36-3.46,2.64-5.46,3.09-1.82.45-3.64.36-5.37-.73-1.46-.82-2.18-2.18-2.18-3.64-.09-2.09.64-3.73,1.73-5.28.91-1.27,2.09-2.46,3.27-3.64l1.73-1.73c.55-.55,1.09-1.09,1.55-1.73-1.46-5.73-2.82-11.64-3.82-17.74.09-.64.55-1.27,1.27-1.36.64-.09,1,.27,1.46.82l.36.45c.73,5.37,1.91,10.28,3.18,15.28,3.64-3.36,7.28-6.73,11-9.82.09-.45,0-.91-.09-1.36-.09-.55-.27-1.09-.27-1.64s.27-1.09.73-1.36c.36-.27.91-.27,1.27.18.27.36.45.82.55,1.27l.36.73c1.64-1.09,3.27-2.55,4.82-4.09.73-.09,1.18.82.82,1.27-.64,1.18-1.55,2.27-2.55,3.27Zm-18.19,17.28l-3.18,3.55c-1.09,1.27-2.09,2.64-2.82,4-.27,1.09-.36,2.27.55,2.91,1.09.36,2.27.36,3.37,0,1.73-.45,3.27-1.55,4.73-2.82-.64-1.91-1.73-5.28-2.64-7.64Zm2.46-2.55c.82,2.55,1.46,5.18,2.55,7.73,2.18-3.09,4.18-6.37,5.46-9.73.91-2.36,1.64-4.82,1.91-7.37-3.46,3-6.64,5.91-9.91,9.37Zm50.48,31.47c-4.18.09-8.37-.82-11.92-2.73-3.18-1.64-5.91-3.91-8.37-6.64-2.36-2.64-4.46-5.73-6-8.73-2.82,3.27-4.64,7.09-5.91,11.19-.27.64-.09,1.46.18,2.18.18.64.64,1.09,1.36,1.55-.91,1.09-1.91.91-2.73.45-.82-.36-1.18-1-1.36-1.73l-.45-2.09c.64-3.82,2.36-7.46,4.73-10.64,2.64-3.55,6-6.64,9.82-9,.55-.18,1,.55.73,1-.91,1.64-2.46,2.64-3.64,3.91l-1.09,1.18c1.46,3,3.46,5.82,5.73,8.28,2.64,2.82,5.73,5.27,9.19,6.91,3.55,1.64,7.28,2.46,11.37,2.09,4.28-.36,8.28-1.46,12.37-2.73.73,0,.64,1.09.36,1.36-4.28,2.64-9.28,4.09-14.37,4.18Zm6.28-47.02c-1.64.09-3.64.36-5.73.82-3.27,4.09-7.19,7.82-10.28,12,0,4-.45,7.73-.36,11.64,3.37-5.28,7.28-10.37,11.37-15.46.55-.18,1.09.36,1,.82-.36,1.09-.82,1.82-1.18,2.55l-1.46,2.09c-3.91,5.55-6.37,9.73-9.46,15.64-.91,1.18-2.73.73-3.27-.55-.18-4.46.27-8.82.27-13.1-1.09,1-2.73,2.64-3.64,3.55-.91.55-1.64-.09-1.91-.73-.27-.91.36-1.55.82-2l2.64-2.36c.73-.82,1.55-1.55,2.27-2.46v-7.73c-6.09,2.36-11.46,5.28-13.73,7.73,0,.18.45.64.73.64,1.82.09,3.55-.18,5.55-.45-.36,1.27-1.73,2.09-3.27,2.36-2.09.45-4.46.27-5.73-.36-.55-.64-.64-1.46-.55-2.18.73-1.27,1.64-2.46,2.82-3.46,3.73-2.91,8.82-5.46,14.19-7.46v-6.09c-5.37,2-10.82,4.46-16.28,6.91l-.91-.18c-.27-.09-.55-.36-.73-.73-.09-.82.36-1.55,1.09-1.91,5.46-2.46,11.01-5.09,16.64-7.09.09-3.27,0-6.73-.18-10-4.91.73-9.73,2.36-14.19,4.64-.73.18-1.55.18-2.18-.55-.18-1.82,1.36-2.46,2.73-3,4.37-1.73,8.82-3.18,13.46-3.91.09-.82,0-1.64-.09-2.46-.09-.91-.09-1.82.55-2.64.64-.27,1.09-.09,1.27.27.27.27.36.64.55,1,.18.36.27,1,.45,1.64l.27,1.64c1.09,0,2.27-.18,3.55-.36,1.27-.09,2.64-.27,3.91-.18,1.55.18,2.73.73,3.82,1.82.45.55.73,1.36.45,2.27-1.46-.64-3.18-1.27-4.64-1.36-1.09-.09-2.27,0-3.46.18-1.09.09-2.27.27-3.27.45-.27,3,0,6.18.09,9.28,1.91-.45,3.82-1.18,5.82-1.73,2.18-.55,4.37-.82,6.73-.36,1.36.73,2.27,2.18,2.27,3.73-.27,1.36-.91,2.46-1.55,3.55l-.82,1.36c1.27-.18,2.55-.27,3.73-.36,1.27-.09,2.18.64,2.27,1.27.09.64-.64,1.27-2.46,1.36Zm-4.91-8.37c-3.73.36-7.37,1.55-11,2.64.09,2.09.09,4.18.09,6.28,2.82-.91,5.64-1.64,8.37-2.18,1.55-2.09,2.82-3.91,3.27-4.73.36-.82-.18-1.91-.73-2Zm-11,17.1c1-1.18,3.37-3.91,5.73-6.82-1.91.45-3.73,1.09-5.64,1.73,0,1.73,0,3.37-.09,5.09Z"/>
    </g>
  </g>
  <g id="jie">
    <g id="jie-2" data-name="jie">
      <path id="j" class="cls-2" d="m182.43,164.27c4.95-4.71,12.96-14.49,12.84-24.62h8.01c.24,14.96-14.37,26.86-16.96,29.21l-3.89-4.59Zm12.84-24.62V57.2h8.01v82.45h-8.01Z"/>
      <path id="i" class="cls-2" d="m226.01,54.25c3.3,0,5.42,2.12,5.42,5.42,0,3.53-2.47,5.3-5.42,5.3-3.3,0-4.95-2.36-4.95-5.3,0-3.3,2-5.42,4.95-5.42Zm4,26.5v58.89h-7.66v-58.31l7.66-.59Z"/>
      <path id="e" class="cls-2" d="m252.75,108.67c-.12,1.3-.12,2.59-.12,3.89,0,18.02,11.19,20.73,20.02,20.73,7.3,0,15.78-1.88,17.67-2.83l1.53,5.54c-3.77,2.36-13.43,4.12-20.73,4.12-10.72,0-26.15-3.89-26.15-27.56,0-22.15,13.55-31.8,27.68-32.28,14.14-.47,22.5,8.95,22.5,23.32,0,1.65-.12,3.3-.35,5.06h-42.05Zm.82-4.59h34.51c-.12-7.66-2.83-14.25-10.01-15.9-2.47-.71-5.06-.82-7.66-.35-7.54,1.18-14.37,6.6-16.84,16.25Z"/>
    </g>
  </g>
  <g id="yang">
    <g id="yang-2" data-name="yang">
      <path id="y" class="cls-2" d="m336.32,107.61l22.17-43.81h7.5l-26.24,49.81v25.17h-6.75v-25.28l-27.63-49.7h7.82l23.14,43.81Z"/>
      <path id="a" class="cls-2" d="m400.05,138.78l-.64-1.61-.75-2.25v-.21c-4.61,2.14-11.25,4.5-18.74,4.5-7.93,0-14.46-2.78-15.1-11.25-.75-8.35,5.25-12,10.71-13.5,4.39-1.07,15.64-2.57,23.14-3.43v-8.25c0-11.57-9.43-11.68-12.43-11.68-8.36.11-17.89,3.86-18.42,4.07l-1.82-4.61c.86-.32,11.03-5.25,20.35-5.68,4.61-.11,19.28.43,19.28,15.53v38.35h-5.57Zm-1.39-8.14v-15.32c-6.11.21-16.6.75-20.78,2.14-5.25,1.5-6.96,6.21-6.64,9.53.43,5.57,5.68,7.28,10.6,7.28,5.68,0,12.21-1.71,16.82-3.64Z"/>
      <path id="n" class="cls-2" d="m449.74,102.04c0-11.03-11.14-10.39-12.21-10.39-5.35.22-10.71,2.46-14.24,4.39v42.74h-6.96v-53.02l6.96-.54v6c4.07-2.68,10.6-6,16.82-6.32,3.75-.11,16.6.11,16.6,14.46v39.42h-6.96v-36.74Z"/>
      <path id="g" class="cls-2" d="m493.65,84.79c2.25,0,4.28.22,6.21.54l20.14-.54-.22,4.07h-11.68c3.86,2.89,5.89,7.39,5.89,13.18,0,11.78-8.14,18.42-22.39,18.42-3.32,0-6.21-.32-8.68-1.07-1.39,1.29-2.03,2.79-2.03,4.5,0,5.03,5.89,6.32,15,7.82,10.28,1.61,23.67,3.86,23.67,17.14s-13.82,16.71-25.81,16.71c-19.49,0-25.71-8.46-25.17-16.5.32-6.43,4.82-11.89,11.46-16.07-2.68-1.82-4.5-4.39-4.5-8.14,0-2.25.75-4.5,3.86-6.75-5.46-2.78-7.93-7.93-7.93-14.57,0-13.07,9.64-18.74,22.17-18.74Zm-9.96,50.24c-4.82,3.96-8.14,8.57-8.14,13.6,0,5.57,4.07,10.71,17.99,10.71,9,0,19.07-2.14,19.07-10.39,0-7.39-8.25-9.64-13.71-10.6-4.18-.64-10.28-1.29-15.21-3.32Zm7.93-20.24c9.53,0,15.1-4.82,15.1-12.96,0-7.6-4.93-11.35-13.6-11.35s-14.67,3.64-14.67,12.64c0,6.64,3.43,11.68,13.17,11.68Z"/>
    </g>
  </g>
</svg>