<?xml version="1.0" encoding="UTF-8"?>
<svg id="_图层_2" data-name="图层 2" xmlns="http://www.w3.org/2000/svg" viewBox="0 0 953.21 244.11">
  <defs>
    <style>
      .cls-1, .cls-2 {
        fill: #fff;
        stroke: #fff;
        stroke-miterlimit: 10;
      }

      .cls-2 {
        stroke-width: 1.62px;
      }
    </style>
  </defs>
  <g id="_图层_7" data-name="图层 7">
    <g>
      <path class="cls-2" d="m1.11,90.71c4.15-3.95,10.87-12.16,10.77-20.66h6.72c.2,12.55-12.06,22.54-14.23,24.51l-3.26-3.85Zm10.77-20.66V.86h6.72v69.19h-6.72Z"/>
      <path class="cls-2" d="m52.12,70.05h-18.58v-4.74l5.93-.69V6.39l-5.44-.69V.86h17.59v4.84l-5.44.69v58.22l5.93.69v4.74Z"/>
      <path class="cls-2" d="m104.4,6.79h-28.76v26h26.69l-.49,5.93h-26.19v25.4h31.24l-.49,5.93h-37.46V.86h35.98l-.49,5.93Z"/>
      <path class="cls-2" d="m142.36,41.28L162.82.86h6.92l-24.22,45.96v23.23h-6.23v-23.33L113.79.86h7.22l21.35,40.43Z"/>
      <path class="cls-2" d="m215.4,51.76h-30.44l-6.33,18.29h-6.42L197.21.86h6.03l25.9,69.19h-7.22l-6.52-18.29Zm-28.76-4.94h26.98l-13.74-38.45-13.25,38.45Z"/>
      <path class="cls-2" d="m286.47,70.05l-39.44-60.3.49,60.3h-6.23V.86h7.22l39.34,60.3-.4-60.3h6.23v69.19h-7.22Z"/>
      <path class="cls-2" d="m353.78,8.47c-1.19-.49-8.8-2.27-14.93-2.27-15.32,0-24.81,10.87-24.81,32.13,0,23.92,12.06,26.69,21.55,26.69,4.74,0,10.28-.69,14.13-1.29l.49-24.32h5.44v28.57c-1.98.69-14.33,2.47-21.25,2.47-11.47,0-27.08-4.45-27.08-31.93,0-24.32,12.36-36.97,29.06-37.66,8.01-.4,17.4,1.98,18.88,2.47l-1.48,5.14Z"/>
    </g>
  </g>
  <g id="_图层_5" data-name="图层 5">
    <g>
      <path class="cls-1" d="m37.62,145.86H10.31v24.68h25.34l-.47,5.63H10.31v29.75H3.93v-65.69h34.16l-.47,5.63Z"/>
      <path class="cls-1" d="m49.35,205.92v-65.69h16.89c12.57,0,20.18,6.01,20.18,15.86s-7.41,18.11-11.54,20.55l18.02,29.28h-6.85l-16.7-26.93h-13.61v26.93h-6.38Zm6.38-60.53v28.43h15.48c2.25-2.06,8.82-7.88,8.82-16.52,0-7.6-5.07-11.92-14.26-11.92h-10.04Z"/>
      <path class="cls-1" d="m129.03,139.86c14.36,0,26.75,8.82,26.75,32.09s-12.39,34.35-28.62,34.35c-14.36,0-26.75-8.63-26.75-31.81s12.29-34.63,28.62-34.63Zm-1.69,60.81c12.57,0,22.05-9.1,22.05-28.43s-9.57-26.74-20.74-26.74c-12.29,0-21.87,8.92-21.87,28.53s9.57,26.65,20.55,26.65Z"/>
      <path class="cls-1" d="m211.51,205.92l-37.44-57.24.47,57.24h-5.91v-65.69h6.85l37.35,57.24-.38-57.24h5.91v65.69h-6.85Z"/>
      <path class="cls-1" d="m248.02,205.92v-60.06h-18.58l.47-5.63h42.51l-.47,5.63h-18.02v60.06h-5.91Z"/>
      <path class="cls-1" d="m317.84,145.86h-27.31v24.68h25.34l-.47,5.63h-24.87v24.12h29.65l-.47,5.63h-35.57v-65.69h34.16l-.47,5.63Z"/>
      <path class="cls-1" d="m373.58,205.92l-37.44-57.24.47,57.24h-5.91v-65.69h6.85l37.35,57.24-.38-57.24h5.91v65.69h-6.85Z"/>
      <path class="cls-1" d="m394.79,140.23h16.89c16.42,0,27.96,7.7,27.96,33.22,0,26.93-12.86,32.47-30.31,32.47h-14.55v-65.69Zm6.38,5.16v55.37h7.69c12.11,0,24.4-2.53,24.4-27.21,0-22.05-10.04-28.15-22.05-28.15h-10.04Z"/>
      <path class="cls-1" d="m481.31,140.23h16.89c16.42,0,27.96,7.7,27.96,33.22,0,26.93-12.86,32.47-30.31,32.47h-14.55v-65.69Zm6.38,5.16v55.37h7.69c12.11,0,24.4-2.53,24.4-27.21,0-22.05-10.04-28.15-22.05-28.15h-10.04Z"/>
      <path class="cls-1" d="m573.47,145.86h-27.31v24.68h25.34l-.47,5.63h-24.87v24.12h29.65l-.47,5.63h-35.57v-65.69h34.16l-.47,5.63Z"/>
      <path class="cls-1" d="m611.01,198.79l19.8-58.56h6.1l-23.27,65.69h-6.19l-24.12-65.69h6.38l21.3,58.56Z"/>
      <path class="cls-1" d="m682.61,145.86h-27.31v24.68h25.34l-.47,5.63h-24.87v24.12h29.65l-.47,5.63h-35.57v-65.69h34.16l-.47,5.63Z"/>
      <path class="cls-1" d="m731.78,205.92h-35.57v-65.69h6.38v60.06h29.65l-.47,5.63Z"/>
      <path class="cls-1" d="m771.2,139.86c14.36,0,26.74,8.82,26.74,32.09s-12.39,34.35-28.62,34.35c-14.36,0-26.75-8.63-26.75-31.81s12.29-34.63,28.62-34.63Zm-1.69,60.81c12.58,0,22.05-9.1,22.05-28.43s-9.57-26.74-20.74-26.74c-12.29,0-21.87,8.92-21.87,28.53s9.57,26.65,20.55,26.65Z"/>
      <path class="cls-1" d="m811.55,205.92v-65.69h13.61c14.73,0,22.71,3.75,22.71,18.67s-8.35,21.49-22.71,21.49h-7.23v25.52h-6.38Zm6.38-60.53v29.84h6.76c10.23,0,16.8-3.85,16.8-15.95,0-11.26-5.72-13.89-16.8-13.89h-6.76Z"/>
      <path class="cls-1" d="m895.16,145.86h-27.31v24.68h25.34l-.47,5.63h-24.87v24.12h29.65l-.47,5.63h-35.57v-65.69h34.16l-.47,5.63Z"/>
      <path class="cls-1" d="m908.77,205.92v-65.69h16.89c12.58,0,20.18,6.01,20.18,15.86s-7.41,18.11-11.54,20.55l18.02,29.28h-6.85l-16.7-26.93h-13.61v26.93h-6.38Zm6.38-60.53v28.43h15.48c2.25-2.06,8.82-7.88,8.82-16.52,0-7.6-5.07-11.92-14.26-11.92h-10.04Z"/>
    </g>
    <text/>
  </g>
</svg>