<svg xmlns="http://www.w3.org/2000/svg" width="32" height="32" viewBox="0 0 32 32">
  <g id="in" transform="translate(0)">
    <path id="路径_7" data-name="路径 7" d="M1031.439,587.164a16,16,0,1,1-16-16A16,16,0,0,1,1031.439,587.164Z" transform="translate(-999.439 -571.164)" fill="#585858"/>
    <g id="组_4" data-name="组 4" transform="translate(5.995 5.553)">
      <rect id="矩形_1" data-name="矩形 1" width="4.16" height="14.119" transform="translate(0.238 6.527)" fill="#fff"/>
      <path id="路径_8" data-name="路径 8" d="M1010.773,585.039a2.44,2.44,0,1,0-2.334-2.437A2.388,2.388,0,0,0,1010.773,585.039Z" transform="translate(-1008.439 -580.164)" fill="#fff"/>
      <path id="路径_9" data-name="路径 9" d="M1032.112,596.438c0-3.759-.776-6.274-4.972-6.274-2.016,0-3.37.782-3.923,1.88h-.058v-1.88h-3.72v13.929h3.888v-6.9c0-1.821.33-3.584,2.487-3.584,2.125,0,2.3,2.082,2.3,3.7v6.787h4Z" transform="translate(-1012.102 -583.199)" fill="#fff"/>
    </g>
    <path id="路径_10" data-name="路径 10" d="M1031.439,587.164a16,16,0,1,1-16-16A16,16,0,0,1,1031.439,587.164Z" transform="translate(-999.439 -571.164)" fill="#585858"/>
    <g id="组_5" data-name="组 5" transform="translate(5.995 5.553)">
      <rect id="矩形_2" data-name="矩形 2" width="4.16" height="14.119" transform="translate(0.238 6.527)" fill="#fff"/>
      <path id="路径_11" data-name="路径 11" d="M1010.773,585.039a2.44,2.44,0,1,0-2.334-2.437A2.388,2.388,0,0,0,1010.773,585.039Z" transform="translate(-1008.439 -580.164)" fill="#fff"/>
      <path id="路径_12" data-name="路径 12" d="M1032.112,596.438c0-3.759-.776-6.274-4.972-6.274-2.016,0-3.37.782-3.923,1.88h-.058v-1.88h-3.72v13.929h3.888v-6.9c0-1.821.33-3.584,2.487-3.584,2.125,0,2.3,2.082,2.3,3.7v6.787h4Z" transform="translate(-1012.102 -583.199)" fill="#fff"/>
    </g>
    <path id="路径_13" data-name="路径 13" d="M1031.439,587.164a16,16,0,1,1-16-16A16,16,0,0,1,1031.439,587.164Z" transform="translate(-999.439 -571.164)" fill="#70468c"/>
    <g id="组_6" data-name="组 6" transform="translate(5.995 5.553)">
      <rect id="矩形_3" data-name="矩形 3" width="4.16" height="14.119" transform="translate(0.238 6.527)" fill="#fff"/>
      <path id="路径_14" data-name="路径 14" d="M1010.773,585.039a2.44,2.44,0,1,0-2.334-2.437A2.388,2.388,0,0,0,1010.773,585.039Z" transform="translate(-1008.439 -580.164)" fill="#fff"/>
      <path id="路径_15" data-name="路径 15" d="M1032.112,596.438c0-3.759-.776-6.274-4.972-6.274-2.016,0-3.37.782-3.923,1.88h-.058v-1.88h-3.72v13.929h3.888v-6.9c0-1.821.33-3.584,2.487-3.584,2.125,0,2.3,2.082,2.3,3.7v6.787h4Z" transform="translate(-1012.102 -583.199)" fill="#fff"/>
    </g>
  </g>
</svg>
