<svg xmlns="http://www.w3.org/2000/svg" width="32" height="32" viewBox="0 0 32 32">
  <g id="instagram" transform="translate(0)">
    <path id="路径_16" data-name="路径 16" d="M1433.69,712.914a16,16,0,1,1-16-16A16,16,0,0,1,1433.69,712.914Z" transform="translate(-1401.69 -696.914)" fill="#757575"/>
    <g id="组_8" data-name="组 8" transform="translate(5.995 5.553)">
      <path id="路径_17" data-name="路径 17" d="M1426.832,705.914h-12.276a3.958,3.958,0,0,0-3.866,4.037V722.77a3.958,3.958,0,0,0,3.866,4.037h12.276a3.96,3.96,0,0,0,3.868-4.037V709.951A3.96,3.96,0,0,0,1426.832,705.914Zm1.11,2.409.442,0v3.541l-3.38.013-.011-3.541Zm-10.1,5.894a3.426,3.426,0,0,1,5.711,0,3.766,3.766,0,0,1,.667,2.144,3.526,3.526,0,1,1-7.045,0A3.767,3.767,0,0,1,1417.839,714.217Zm10.912,8.553a1.964,1.964,0,0,1-1.919,2h-12.276a1.963,1.963,0,0,1-1.918-2v-8.553h2.987a5.9,5.9,0,0,0-.4,2.144,5.477,5.477,0,1,0,10.943,0,5.89,5.89,0,0,0-.4-2.144h2.989Z" transform="translate(-1410.69 -705.914)" fill="#fff"/>
    </g>
    <path id="路径_18" data-name="路径 18" d="M1433.69,712.914a16,16,0,1,1-16-16A16,16,0,0,1,1433.69,712.914Z" transform="translate(-1401.69 -696.914)" fill="#757575"/>
    <g id="组_9" data-name="组 9" transform="translate(5.995 5.553)">
      <path id="路径_19" data-name="路径 19" d="M1426.832,705.914h-12.276a3.958,3.958,0,0,0-3.866,4.037V722.77a3.958,3.958,0,0,0,3.866,4.037h12.276a3.96,3.96,0,0,0,3.868-4.037V709.951A3.96,3.96,0,0,0,1426.832,705.914Zm1.11,2.409.442,0v3.541l-3.38.013-.011-3.541Zm-10.1,5.894a3.426,3.426,0,0,1,5.711,0,3.766,3.766,0,0,1,.667,2.144,3.526,3.526,0,1,1-7.045,0A3.767,3.767,0,0,1,1417.839,714.217Zm10.912,8.553a1.964,1.964,0,0,1-1.919,2h-12.276a1.963,1.963,0,0,1-1.918-2v-8.553h2.987a5.9,5.9,0,0,0-.4,2.144,5.477,5.477,0,1,0,10.943,0,5.89,5.89,0,0,0-.4-2.144h2.989Z" transform="translate(-1410.69 -705.914)" fill="#fff"/>
    </g>
    <path id="路径_20" data-name="路径 20" d="M1433.69,712.914a16,16,0,1,1-16-16A16,16,0,0,1,1433.69,712.914Z" transform="translate(-1401.69 -696.914)" fill="#70468c"/>
    <g id="组_10" data-name="组 10" transform="translate(5.995 5.553)">
      <path id="路径_21" data-name="路径 21" d="M1426.832,705.914h-12.276a3.958,3.958,0,0,0-3.866,4.037V722.77a3.958,3.958,0,0,0,3.866,4.037h12.276a3.96,3.96,0,0,0,3.868-4.037V709.951A3.96,3.96,0,0,0,1426.832,705.914Zm1.11,2.409.442,0v3.541l-3.38.013-.011-3.541Zm-10.1,5.894a3.426,3.426,0,0,1,5.711,0,3.766,3.766,0,0,1,.667,2.144,3.526,3.526,0,1,1-7.045,0A3.767,3.767,0,0,1,1417.839,714.217Zm10.912,8.553a1.964,1.964,0,0,1-1.919,2h-12.276a1.963,1.963,0,0,1-1.918-2v-8.553h2.987a5.9,5.9,0,0,0-.4,2.144,5.477,5.477,0,1,0,10.943,0,5.89,5.89,0,0,0-.4-2.144h2.989Z" transform="translate(-1410.69 -705.914)" fill="#fff"/>
    </g>
  </g>
</svg>
