<svg id="twitter" xmlns="http://www.w3.org/2000/svg" width="32" height="32" viewBox="0 0 32 32">
  <path id="路径_22" data-name="路径 22" d="M395.69,626.914a16,16,0,1,1-16-16A16,16,0,0,1,395.69,626.914Z" transform="translate(-363.69 -610.914)" fill="#8b8b8b"/>
  <g id="组_11" data-name="组 11" transform="translate(5.829 7.505)">
    <path id="路径_23" data-name="路径 23" d="M392.469,623.227a8.219,8.219,0,0,1-2.651,1.042,4.11,4.11,0,0,0-3.045-1.355A4.232,4.232,0,0,0,382.6,627.2a4.466,4.466,0,0,0,.107.977,11.746,11.746,0,0,1-8.6-4.482,4.367,4.367,0,0,0-.565,2.157,4.321,4.321,0,0,0,1.858,3.569,4.077,4.077,0,0,1-1.89-.537v.054a4.265,4.265,0,0,0,3.348,4.207,4.064,4.064,0,0,1-1.1.151,4.12,4.12,0,0,1-.785-.077,4.2,4.2,0,0,0,3.9,2.979,8.236,8.236,0,0,1-5.184,1.836,8.392,8.392,0,0,1-1-.06,11.592,11.592,0,0,0,6.4,1.926c7.676,0,11.873-6.535,11.873-12.2,0-.186,0-.372-.011-.555a8.619,8.619,0,0,0,2.082-2.221,8.152,8.152,0,0,1-2.4.675A4.279,4.279,0,0,0,392.469,623.227Z" transform="translate(-372.69 -622.914)" fill="#fff"/>
  </g>
  <path id="路径_24" data-name="路径 24" d="M395.69,626.914a16,16,0,1,1-16-16A16,16,0,0,1,395.69,626.914Z" transform="translate(-363.69 -610.914)" fill="#8b8b8b"/>
  <g id="组_12" data-name="组 12" transform="translate(5.829 7.505)">
    <path id="路径_25" data-name="路径 25" d="M392.469,623.227a8.219,8.219,0,0,1-2.651,1.042,4.11,4.11,0,0,0-3.045-1.355A4.232,4.232,0,0,0,382.6,627.2a4.466,4.466,0,0,0,.107.977,11.746,11.746,0,0,1-8.6-4.482,4.367,4.367,0,0,0-.565,2.157,4.321,4.321,0,0,0,1.858,3.569,4.077,4.077,0,0,1-1.89-.537v.054a4.265,4.265,0,0,0,3.348,4.207,4.064,4.064,0,0,1-1.1.151,4.12,4.12,0,0,1-.785-.077,4.2,4.2,0,0,0,3.9,2.979,8.236,8.236,0,0,1-5.184,1.836,8.392,8.392,0,0,1-1-.06,11.592,11.592,0,0,0,6.4,1.926c7.676,0,11.873-6.535,11.873-12.2,0-.186,0-.372-.011-.555a8.619,8.619,0,0,0,2.082-2.221,8.152,8.152,0,0,1-2.4.675A4.279,4.279,0,0,0,392.469,623.227Z" transform="translate(-372.69 -622.914)" fill="#fff"/>
  </g>
  <path id="路径_26" data-name="路径 26" d="M395.69,626.914a16,16,0,1,1-16-16A16,16,0,0,1,395.69,626.914Z" transform="translate(-363.69 -610.914)" fill="#70468c"/>
  <g id="组_13" data-name="组 13" transform="translate(5.829 7.505)">
    <path id="路径_27" data-name="路径 27" d="M392.469,623.227a8.219,8.219,0,0,1-2.651,1.042,4.11,4.11,0,0,0-3.045-1.355A4.232,4.232,0,0,0,382.6,627.2a4.466,4.466,0,0,0,.107.977,11.746,11.746,0,0,1-8.6-4.482,4.367,4.367,0,0,0-.565,2.157,4.321,4.321,0,0,0,1.858,3.569,4.077,4.077,0,0,1-1.89-.537v.054a4.265,4.265,0,0,0,3.348,4.207,4.064,4.064,0,0,1-1.1.151,4.12,4.12,0,0,1-.785-.077,4.2,4.2,0,0,0,3.9,2.979,8.236,8.236,0,0,1-5.184,1.836,8.392,8.392,0,0,1-1-.06,11.592,11.592,0,0,0,6.4,1.926c7.676,0,11.873-6.535,11.873-12.2,0-.186,0-.372-.011-.555a8.619,8.619,0,0,0,2.082-2.221,8.152,8.152,0,0,1-2.4.675A4.279,4.279,0,0,0,392.469,623.227Z" transform="translate(-372.69 -622.914)" fill="#fff"/>
  </g>
</svg>
