<svg xmlns="http://www.w3.org/2000/svg" width="25.783" height="25.782" viewBox="0 0 25.783 25.782">
  <g id="in" transform="translate(0 0)">
    <path id="路径_7" data-name="路径 7" d="M1025.222,584.055a12.891,12.891,0,1,1-12.891-12.891A12.891,12.891,0,0,1,1025.222,584.055Z" transform="translate(-999.439 -571.164)" fill="#585858"/>
    <g id="组_4" data-name="组 4" transform="translate(4.834 4.834)">
      <rect id="矩形_1" data-name="矩形 1" width="3.35" height="10.889" transform="translate(0.191 5.034)" fill="#fff"/>
      <path id="路径_8" data-name="路径 8" d="M1010.319,583.924a1.88,1.88,0,1,0-1.88-1.88A1.881,1.881,0,0,0,1010.319,583.924Z" transform="translate(-1008.439 -580.164)" fill="#fff"/>
      <path id="路径_9" data-name="路径 9" d="M1029.644,595c0-2.9-.625-4.839-4-4.839a3.366,3.366,0,0,0-3.159,1.45h-.046v-1.45h-3v10.743h3.131v-5.325c0-1.4.265-2.764,2-2.764,1.711,0,1.849,1.606,1.849,2.854v5.234h3.223Z" transform="translate(-1013.531 -584.793)" fill="#fff"/>
    </g>
    <path id="路径_10" data-name="路径 10" d="M1025.222,584.055a12.891,12.891,0,1,1-12.891-12.891A12.891,12.891,0,0,1,1025.222,584.055Z" transform="translate(-999.439 -571.164)" fill="#585858"/>
    <g id="组_5" data-name="组 5" transform="translate(4.834 4.834)">
      <rect id="矩形_2" data-name="矩形 2" width="3.35" height="10.889" transform="translate(0.191 5.034)" fill="#fff"/>
      <path id="路径_11" data-name="路径 11" d="M1010.319,583.924a1.88,1.88,0,1,0-1.88-1.88A1.881,1.881,0,0,0,1010.319,583.924Z" transform="translate(-1008.439 -580.164)" fill="#fff"/>
      <path id="路径_12" data-name="路径 12" d="M1029.644,595c0-2.9-.625-4.839-4-4.839a3.366,3.366,0,0,0-3.159,1.45h-.046v-1.45h-3v10.743h3.131v-5.325c0-1.4.265-2.764,2-2.764,1.711,0,1.849,1.606,1.849,2.854v5.234h3.223Z" transform="translate(-1013.531 -584.793)" fill="#fff"/>
    </g>
    <path id="路径_13" data-name="路径 13" d="M1025.222,584.055a12.891,12.891,0,1,1-12.891-12.891A12.891,12.891,0,0,1,1025.222,584.055Z" transform="translate(-999.439 -571.164)" fill="#f4e1c2"/>
    <g id="组_6" data-name="组 6" transform="translate(4.834 4.834)">
      <rect id="矩形_3" data-name="矩形 3" width="3.35" height="10.889" transform="translate(0.191 5.034)" fill="#fff"/>
      <path id="路径_14" data-name="路径 14" d="M1010.319,583.924a1.88,1.88,0,1,0-1.88-1.88A1.881,1.881,0,0,0,1010.319,583.924Z" transform="translate(-1008.439 -580.164)" fill="#fff"/>
      <path id="路径_15" data-name="路径 15" d="M1029.644,595c0-2.9-.625-4.839-4-4.839a3.366,3.366,0,0,0-3.159,1.45h-.046v-1.45h-3v10.743h3.131v-5.325c0-1.4.265-2.764,2-2.764,1.711,0,1.849,1.606,1.849,2.854v5.234h3.223Z" transform="translate(-1013.531 -584.793)" fill="#fff"/>
    </g>
  </g>
</svg>
