<svg xmlns="http://www.w3.org/2000/svg" width="25.782" height="25.782" viewBox="0 0 25.782 25.782">
  <g id="instagram" transform="translate(0 0)">
    <path id="路径_16" data-name="路径 16" d="M1427.472,709.805a12.891,12.891,0,1,1-12.891-12.891A12.891,12.891,0,0,1,1427.472,709.805Z" transform="translate(-1401.69 -696.914)" fill="#757575"/>
    <g id="组_8" data-name="组 8" transform="translate(4.834 4.834)">
      <path id="路径_17" data-name="路径 17" d="M1423.689,705.914H1413.8a3.116,3.116,0,0,0-3.113,3.114v9.886a3.116,3.116,0,0,0,3.113,3.114h9.886a3.118,3.118,0,0,0,3.115-3.114v-9.886A3.118,3.118,0,0,0,1423.689,705.914Zm.894,1.858.356,0V710.5l-2.722.01-.009-2.731Zm-8.136,4.546a2.83,2.83,0,1,1-.537,1.653A2.835,2.835,0,0,1,1416.447,712.318Zm8.787,6.6a1.546,1.546,0,0,1-1.545,1.544H1413.8a1.545,1.545,0,0,1-1.544-1.544v-6.6h2.406a4.407,4.407,0,1,0,8.163,0h2.407Z" transform="translate(-1410.69 -705.914)" fill="#fff"/>
    </g>
    <path id="路径_18" data-name="路径 18" d="M1427.472,709.805a12.891,12.891,0,1,1-12.891-12.891A12.891,12.891,0,0,1,1427.472,709.805Z" transform="translate(-1401.69 -696.914)" fill="#757575"/>
    <g id="组_9" data-name="组 9" transform="translate(4.834 4.834)">
      <path id="路径_19" data-name="路径 19" d="M1423.689,705.914H1413.8a3.116,3.116,0,0,0-3.113,3.114v9.886a3.116,3.116,0,0,0,3.113,3.114h9.886a3.118,3.118,0,0,0,3.115-3.114v-9.886A3.118,3.118,0,0,0,1423.689,705.914Zm.894,1.858.356,0V710.5l-2.722.01-.009-2.731Zm-8.136,4.546a2.83,2.83,0,1,1-.537,1.653A2.835,2.835,0,0,1,1416.447,712.318Zm8.787,6.6a1.546,1.546,0,0,1-1.545,1.544H1413.8a1.545,1.545,0,0,1-1.544-1.544v-6.6h2.406a4.407,4.407,0,1,0,8.163,0h2.407Z" transform="translate(-1410.69 -705.914)" fill="#fff"/>
    </g>
    <path id="路径_20" data-name="路径 20" d="M1427.472,709.805a12.891,12.891,0,1,1-12.891-12.891A12.891,12.891,0,0,1,1427.472,709.805Z" transform="translate(-1401.69 -696.914)" fill="#f4e1c2"/>
    <g id="组_10" data-name="组 10" transform="translate(4.834 4.834)">
      <path id="路径_21" data-name="路径 21" d="M1423.689,705.914H1413.8a3.116,3.116,0,0,0-3.113,3.114v9.886a3.116,3.116,0,0,0,3.113,3.114h9.886a3.118,3.118,0,0,0,3.115-3.114v-9.886A3.118,3.118,0,0,0,1423.689,705.914Zm.894,1.858.356,0V710.5l-2.722.01-.009-2.731Zm-8.136,4.546a2.83,2.83,0,1,1-.537,1.653A2.835,2.835,0,0,1,1416.447,712.318Zm8.787,6.6a1.546,1.546,0,0,1-1.545,1.544H1413.8a1.545,1.545,0,0,1-1.544-1.544v-6.6h2.406a4.407,4.407,0,1,0,8.163,0h2.407Z" transform="translate(-1410.69 -705.914)" fill="#fff"/>
    </g>
  </g>
</svg>
