<svg id="twitter" xmlns="http://www.w3.org/2000/svg" width="26.208" height="26.206" viewBox="0 0 26.208 26.206">
  <path id="路径_22" data-name="路径 22" d="M389.9,624.017a13.1,13.1,0,1,1-13.1-13.1A13.1,13.1,0,0,1,389.9,624.017Z" transform="translate(-363.69 -610.914)" fill="#8b8b8b"/>
  <g id="组_11" data-name="组 11" transform="translate(4.914 6.552)">
    <path id="路径_23" data-name="路径 23" d="M388.618,623.155a6.79,6.79,0,0,1-2.135.8,3.377,3.377,0,0,0-2.452-1.045,3.312,3.312,0,0,0-3.274,4.062,9.594,9.594,0,0,1-6.927-3.457,3.258,3.258,0,0,0-.455,1.664,3.294,3.294,0,0,0,1.5,2.753,3.392,3.392,0,0,1-1.522-.414v.041a3.325,3.325,0,0,0,2.7,3.244,3.412,3.412,0,0,1-.886.116,3.458,3.458,0,0,1-.632-.059,3.36,3.36,0,0,0,3.139,2.3,6.816,6.816,0,0,1-4.174,1.416,7.053,7.053,0,0,1-.8-.046,9.63,9.63,0,0,0,5.152,1.486,9.417,9.417,0,0,0,9.561-9.411c0-.144,0-.287-.009-.428a6.773,6.773,0,0,0,1.677-1.713,6.789,6.789,0,0,1-1.931.52A3.325,3.325,0,0,0,388.618,623.155Z" transform="translate(-372.69 -622.914)" fill="#fff"/>
  </g>
  <path id="路径_24" data-name="路径 24" d="M389.9,624.017a13.1,13.1,0,1,1-13.1-13.1A13.1,13.1,0,0,1,389.9,624.017Z" transform="translate(-363.69 -610.914)" fill="#8b8b8b"/>
  <g id="组_12" data-name="组 12" transform="translate(4.914 6.552)">
    <path id="路径_25" data-name="路径 25" d="M388.618,623.155a6.79,6.79,0,0,1-2.135.8,3.377,3.377,0,0,0-2.452-1.045,3.312,3.312,0,0,0-3.274,4.062,9.594,9.594,0,0,1-6.927-3.457,3.258,3.258,0,0,0-.455,1.664,3.294,3.294,0,0,0,1.5,2.753,3.392,3.392,0,0,1-1.522-.414v.041a3.325,3.325,0,0,0,2.7,3.244,3.412,3.412,0,0,1-.886.116,3.458,3.458,0,0,1-.632-.059,3.36,3.36,0,0,0,3.139,2.3,6.816,6.816,0,0,1-4.174,1.416,7.053,7.053,0,0,1-.8-.046,9.63,9.63,0,0,0,5.152,1.486,9.417,9.417,0,0,0,9.561-9.411c0-.144,0-.287-.009-.428a6.773,6.773,0,0,0,1.677-1.713,6.789,6.789,0,0,1-1.931.52A3.325,3.325,0,0,0,388.618,623.155Z" transform="translate(-372.69 -622.914)" fill="#fff"/>
  </g>
  <path id="路径_26" data-name="路径 26" d="M389.9,624.017a13.1,13.1,0,1,1-13.1-13.1A13.1,13.1,0,0,1,389.9,624.017Z" transform="translate(-363.69 -610.914)" fill="#f4e1c2"/>
  <g id="组_13" data-name="组 13" transform="translate(4.914 6.552)">
    <path id="路径_27" data-name="路径 27" d="M388.618,623.155a6.79,6.79,0,0,1-2.135.8,3.377,3.377,0,0,0-2.452-1.045,3.312,3.312,0,0,0-3.274,4.062,9.594,9.594,0,0,1-6.927-3.457,3.258,3.258,0,0,0-.455,1.664,3.294,3.294,0,0,0,1.5,2.753,3.392,3.392,0,0,1-1.522-.414v.041a3.325,3.325,0,0,0,2.7,3.244,3.412,3.412,0,0,1-.886.116,3.458,3.458,0,0,1-.632-.059,3.36,3.36,0,0,0,3.139,2.3,6.816,6.816,0,0,1-4.174,1.416,7.053,7.053,0,0,1-.8-.046,9.63,9.63,0,0,0,5.152,1.486,9.417,9.417,0,0,0,9.561-9.411c0-.144,0-.287-.009-.428a6.773,6.773,0,0,0,1.677-1.713,6.789,6.789,0,0,1-1.931.52A3.325,3.325,0,0,0,388.618,623.155Z" transform="translate(-372.69 -622.914)" fill="#fff"/>
  </g>
</svg>
